<svg id="svg" version="1.1" width="400" height="400" xmlns="http://www.w3.org/2000/svg" xmlns:xlink="http://www.w3.org/1999/xlink" style="display: block;"><g id="svgg"><path id="path0" d="M102.500 55.348 C 66.988 56.917,53.981 65.009,49.293 88.452 C 47.512 97.363,47.461 98.391,47.291 128.854 C 47.190 146.969,47.062 156.442,46.898 157.917 C 44.212 182.083,35.527 188.750,6.729 188.750 L 0.000 188.750 -0.000 199.767 L -0.000 210.784 8.177 210.889 C 30.885 211.179,39.959 215.875,44.481 229.678 C 46.985 237.322,47.290 241.808,47.292 271.042 C 47.293 296.564,47.428 300.189,48.654 307.854 C 52.728 333.310,63.290 341.435,96.146 344.391 C 97.521 344.514,103.732 344.666,109.948 344.728 L 121.250 344.840 121.250 333.774 L 121.250 322.708 114.427 322.706 C 88.878 322.699,81.251 319.444,78.063 307.188 C 76.243 300.191,76.207 299.484,76.041 268.125 C 75.873 236.535,75.777 234.792,73.725 226.392 C 70.255 212.180,61.857 204.134,46.252 200.071 C 45.541 199.886,45.568 199.870,47.398 199.390 C 62.740 195.370,71.042 186.748,74.159 171.599 C 75.849 163.384,75.878 162.790,76.041 131.875 C 76.211 99.565,76.318 97.906,78.680 90.788 C 82.132 80.386,90.085 77.292,113.364 77.292 L 121.250 77.292 121.250 66.250 L 121.250 55.208 112.552 55.248 C 107.768 55.271,103.245 55.316,102.500 55.348 M278.750 66.228 L 278.750 77.248 288.385 77.353 C 315.624 77.650,321.251 81.672,323.564 102.500 C 323.727 103.973,323.859 113.710,323.967 132.292 C 324.055 147.474,324.180 160.177,324.243 160.521 C 324.306 160.865,324.463 162.224,324.591 163.542 C 326.619 184.428,335.029 195.100,352.917 199.488 C 354.475 199.870,354.477 199.872,353.750 200.066 C 338.380 204.166,330.072 211.866,326.570 225.258 C 324.213 234.270,323.961 238.370,323.957 267.813 C 323.954 295.008,323.792 298.834,322.373 305.179 C 319.273 319.044,312.770 322.336,287.865 322.649 L 278.750 322.763 278.750 333.800 L 278.750 344.838 289.948 344.735 C 333.076 344.341,346.673 335.958,351.020 307.083 C 352.094 299.946,352.137 298.724,352.297 270.208 C 352.425 247.440,352.498 243.033,352.785 240.729 C 355.631 217.874,364.306 211.243,391.823 210.889 L 400.000 210.784 400.000 199.767 L 400.000 188.750 393.073 188.748 C 367.933 188.740,358.266 183.397,354.255 167.292 C 352.455 160.064,352.296 157.072,352.292 130.313 C 352.287 97.304,351.639 89.986,347.806 79.668 C 341.059 61.505,325.286 55.208,286.532 55.208 L 278.750 55.208 278.750 66.228 M249.117 89.106 C 249.376 89.156,249.751 89.154,249.950 89.101 C 250.150 89.049,249.938 89.009,249.479 89.011 C 249.021 89.013,248.858 89.056,249.117 89.106 M287.761 132.396 C 287.763 132.854,287.806 133.017,287.856 132.758 C 287.906 132.499,287.904 132.124,287.851 131.925 C 287.799 131.725,287.759 131.938,287.761 132.396 M266.409 165.564 C 266.703 165.621,266.826 165.747,266.734 165.900 C 266.651 166.039,266.740 166.022,266.939 165.860 C 267.428 165.463,267.389 165.413,266.615 165.445 C 266.120 165.466,266.064 165.498,266.409 165.564 M155.992 170.772 C 156.251 170.822,156.626 170.820,156.825 170.768 C 157.025 170.716,156.813 170.675,156.354 170.678 C 155.896 170.680,155.733 170.723,155.992 170.772 M157.969 170.769 C 158.169 170.821,158.497 170.821,158.698 170.769 C 158.898 170.716,158.734 170.673,158.333 170.673 C 157.932 170.673,157.768 170.716,157.969 170.769 M175.514 185.052 L 174.271 186.354 175.573 185.111 C 176.289 184.427,176.875 183.841,176.875 183.809 C 176.875 183.655,176.669 183.843,175.514 185.052 M258.621 195.938 C 258.622 197.313,258.655 197.848,258.696 197.127 C 258.737 196.407,258.737 195.282,258.695 194.627 C 258.654 193.973,258.621 194.563,258.621 195.938 M244.844 199.063 C 244.847 199.521,244.889 199.684,244.939 199.425 C 244.989 199.166,244.987 198.791,244.935 198.591 C 244.883 198.392,244.842 198.604,244.844 199.063 M258.798 203.333 C 258.798 203.734,258.841 203.898,258.894 203.698 C 258.946 203.497,258.946 203.169,258.894 202.969 C 258.841 202.768,258.798 202.932,258.798 203.333 M244.844 207.813 C 244.847 208.271,244.889 208.434,244.939 208.175 C 244.989 207.916,244.987 207.541,244.935 207.341 C 244.883 207.142,244.842 207.354,244.844 207.813 M281.354 241.875 C 281.802 242.333,282.215 242.708,282.272 242.708 C 282.329 242.708,282.010 242.333,281.563 241.875 C 281.115 241.417,280.702 241.042,280.645 241.042 C 280.587 241.042,280.907 241.417,281.354 241.875 M203.854 254.375 C 204.534 255.063,205.138 255.625,205.195 255.625 C 205.253 255.625,204.743 255.063,204.063 254.375 C 203.382 253.688,202.779 253.125,202.721 253.125 C 202.664 253.125,203.174 253.688,203.854 254.375 M293.185 270.313 C 293.186 270.885,293.227 271.095,293.274 270.778 C 293.322 270.462,293.321 269.993,293.272 269.737 C 293.222 269.480,293.183 269.740,293.185 270.313 M250.156 310.980 C 250.414 311.030,250.836 311.030,251.094 310.980 C 251.352 310.931,251.141 310.890,250.625 310.890 C 250.109 310.890,249.898 310.931,250.156 310.980 M254.219 310.977 C 254.419 311.029,254.747 311.029,254.948 310.977 C 255.148 310.925,254.984 310.882,254.583 310.882 C 254.182 310.882,254.018 310.925,254.219 310.977 " stroke="none" fill="#000000" fill-rule="evenodd"></path><path id="path1" d="M244.167 95.751 C 239.165 96.655,236.902 97.354,233.548 99.032 C 217.417 107.100,209.867 126.749,217.166 141.667 C 218.627 144.652,221.202 148.244,220.004 145.625 C 217.368 139.862,218.054 131.712,221.857 123.646 C 223.392 120.389,225.166 119.131,227.759 119.461 C 230.729 119.839,232.446 119.843,233.571 119.475 C 239.150 117.650,241.297 111.239,237.909 106.521 L 237.271 105.633 238.465 104.870 C 246.278 99.872,257.367 98.020,263.281 100.726 C 264.754 101.400,264.658 101.216,262.969 100.126 C 260.032 98.232,256.795 96.865,253.542 96.144 C 252.030 95.809,245.386 95.531,244.167 95.751 M125.718 172.086 C 102.426 175.044,88.180 201.736,99.924 220.414 C 101.715 223.264,102.263 223.812,101.384 221.875 C 98.756 216.089,99.564 207.297,103.429 199.600 C 105.157 196.160,106.853 195.282,110.504 195.940 C 118.360 197.354,123.901 189.197,119.350 182.915 C 118.632 181.925,118.612 181.967,120.313 180.938 C 128.436 176.021,139.320 174.325,144.844 177.114 C 145.996 177.696,145.796 177.423,144.350 176.441 C 139.346 173.043,131.895 171.301,125.718 172.086 M251.648 236.682 C 234.178 238.322,219.691 255.643,221.432 272.809 C 222.001 278.427,224.123 283.936,226.969 287.188 L 227.517 287.813 226.990 286.731 C 224.930 282.499,224.901 275.681,226.916 269.380 C 229.351 261.769,231.504 259.638,235.858 260.526 C 240.247 261.421,243.855 259.702,245.706 255.833 C 246.969 253.195,246.517 249.428,244.676 247.239 L 244.136 246.599 245.245 245.909 C 253.587 240.717,264.704 238.897,270.469 241.780 C 271.950 242.520,271.669 242.211,269.685 240.918 C 264.532 237.559,258.184 236.068,251.648 236.682 " stroke="none" fill="#ffffff" fill-rule="evenodd"></path><path id="path2" d="M244.792 89.090 C 222.878 90.618,206.147 109.075,206.952 130.833 C 207.022 132.724,207.139 134.589,207.213 134.978 C 207.309 135.478,207.279 135.642,207.111 135.538 C 206.946 135.436,206.875 135.744,206.875 136.566 C 206.875 141.787,200.849 149.550,191.354 156.562 C 175.430 168.321,159.438 173.324,149.984 169.505 C 149.273 169.218,148.798 169.090,148.929 169.221 C 149.464 169.756,149.110 169.780,148.281 169.265 C 141.461 165.026,130.415 163.015,121.875 164.457 C 85.188 170.649,75.262 217.648,106.230 238.535 C 119.608 247.557,139.794 246.905,152.335 237.045 C 152.759 236.711,153.275 236.403,153.480 236.361 C 153.686 236.319,154.300 236.084,154.845 235.840 C 159.543 233.735,168.421 234.666,177.565 238.224 C 197.625 246.030,212.073 259.154,212.085 269.579 C 212.124 303.854,250.297 323.149,277.327 302.557 C 301.528 284.120,296.899 245.169,269.111 233.417 C 268.237 233.047,267.823 232.778,268.021 232.708 C 268.260 232.624,268.104 232.396,267.408 231.815 C 256.530 222.722,255.401 178.067,265.766 166.871 C 266.807 165.747,266.872 165.625,266.429 165.621 C 266.066 165.619,266.311 165.400,267.368 164.783 C 294.379 149.020,294.734 110.910,268.021 94.690 C 261.541 90.756,252.424 88.558,244.792 89.090 M250.938 95.641 C 256.436 96.297,261.849 98.604,265.313 101.769 C 266.264 102.638,266.130 102.603,264.625 101.590 C 259.366 98.051,248.536 99.266,239.535 104.405 C 237.406 105.621,237.320 105.719,237.883 106.318 C 239.720 108.273,240.131 112.218,238.796 115.070 C 237.059 118.784,233.452 120.494,229.004 119.716 C 224.630 118.950,222.969 120.409,220.523 127.166 C 217.868 134.500,217.953 142.147,220.741 146.776 C 221.776 148.494,221.507 148.391,220.060 146.515 C 203.911 125.585,224.031 92.435,250.938 95.641 M223.956 162.928 C 224.356 163.078,225.528 163.716,226.560 164.345 C 228.814 165.719,231.080 166.781,233.750 167.712 C 236.367 168.624,237.145 169.371,239.131 172.878 C 245.597 184.296,247.071 210.615,241.991 223.929 C 239.991 229.168,237.456 232.707,234.705 234.102 C 232.517 235.210,229.836 236.920,227.721 238.554 C 221.847 243.094,208.089 240.057,191.250 230.503 C 176.162 221.942,168.671 213.624,168.738 205.507 C 168.752 203.895,168.656 201.692,168.526 200.611 C 168.071 196.837,168.249 195.571,169.627 192.780 C 175.113 181.664,199.760 165.597,215.625 162.794 C 217.567 162.451,222.911 162.537,223.956 162.928 M133.958 172.215 C 138.489 172.907,143.498 175.209,146.563 178.008 L 147.396 178.769 146.225 178.019 C 141.956 175.284,135.152 175.173,127.645 177.718 C 125.286 178.518,120.520 180.783,119.416 181.629 L 118.937 181.997 119.685 183.238 C 122.685 188.213,120.371 194.355,114.898 195.946 C 113.683 196.299,112.747 196.294,109.032 195.917 C 106.457 195.655,104.858 196.827,103.318 200.104 C 99.196 208.877,98.917 218.826,102.648 223.949 C 103.422 225.013,102.450 224.081,101.393 222.747 C 91.486 210.245,94.745 190.445,108.542 179.315 C 116.013 173.288,124.839 170.823,133.958 172.215 M260.625 236.980 C 262.942 237.498,264.430 238.036,266.979 239.276 C 269.075 240.296,273.082 243.029,272.838 243.273 C 272.782 243.329,272.425 243.142,272.045 242.857 C 266.668 238.825,255.345 240.085,245.729 245.787 C 245.042 246.194,244.440 246.560,244.392 246.598 C 244.343 246.637,244.497 246.879,244.734 247.136 C 249.720 252.566,244.301 261.999,236.875 260.817 C 236.130 260.699,235.122 260.548,234.635 260.482 C 232.343 260.172,230.250 261.670,228.912 264.579 C 224.668 273.805,224.382 282.872,228.156 288.531 C 228.993 289.786,228.171 288.995,226.911 287.331 C 213.724 269.933,224.613 243.191,247.292 237.278 C 250.636 236.406,257.387 236.255,260.625 236.980 " stroke="none" fill="#0c479c" fill-rule="evenodd"></path><path id="path3" d="M245.992 95.564 C 246.251 95.614,246.626 95.612,246.825 95.560 C 247.025 95.508,246.813 95.467,246.354 95.469 C 245.896 95.472,245.733 95.514,245.992 95.564 M248.700 95.564 C 248.959 95.614,249.334 95.612,249.534 95.560 C 249.733 95.508,249.521 95.467,249.063 95.469 C 248.604 95.472,248.441 95.514,248.700 95.564 M255.885 99.524 C 256.201 99.572,256.716 99.572,257.031 99.524 C 257.346 99.476,257.089 99.437,256.458 99.437 C 255.828 99.437,255.570 99.476,255.885 99.524 M214.215 128.125 C 214.215 128.526,214.258 128.690,214.310 128.490 C 214.363 128.289,214.363 127.961,214.310 127.760 C 214.258 127.560,214.215 127.724,214.215 128.125 M214.229 130.000 C 214.229 130.630,214.268 130.888,214.316 130.573 C 214.364 130.258,214.364 129.742,214.316 129.427 C 214.268 129.112,214.229 129.370,214.229 130.000 M108.177 195.769 C 108.378 195.821,108.706 195.821,108.906 195.769 C 109.107 195.716,108.943 195.673,108.542 195.673 C 108.141 195.673,107.977 195.716,108.177 195.769 M99.862 214.167 C 99.862 215.026,99.898 215.378,99.943 214.948 C 99.988 214.518,99.988 213.815,99.943 213.385 C 99.898 212.956,99.862 213.307,99.862 214.167 M261.094 240.560 C 261.294 240.613,261.622 240.613,261.823 240.560 C 262.023 240.508,261.859 240.465,261.458 240.465 C 261.057 240.465,260.893 240.508,261.094 240.560 M246.518 252.396 C 246.519 252.969,246.560 253.178,246.608 252.862 C 246.656 252.545,246.654 252.076,246.605 251.820 C 246.556 251.564,246.516 251.823,246.518 252.396 M230.299 262.135 L 229.688 262.813 230.365 262.201 C 230.996 261.630,231.137 261.458,230.976 261.458 C 230.941 261.458,230.636 261.763,230.299 262.135 M227.623 288.095 C 227.562 288.193,227.750 288.495,228.039 288.767 C 228.396 289.102,228.522 289.151,228.433 288.917 C 228.360 288.728,228.162 288.520,227.992 288.455 C 227.821 288.390,227.740 288.242,227.812 288.126 C 227.883 288.011,227.894 287.917,227.837 287.917 C 227.780 287.917,227.683 287.997,227.623 288.095 " stroke="none" fill="#678cc1" fill-rule="evenodd"></path><path id="path4" d="M247.344 95.560 C 247.544 95.613,247.872 95.613,248.073 95.560 C 248.273 95.508,248.109 95.465,247.708 95.465 C 247.307 95.465,247.143 95.508,247.344 95.560 M224.369 105.573 L 223.021 106.979 224.427 105.631 C 225.733 104.379,225.929 104.167,225.775 104.167 C 225.743 104.167,225.110 104.799,224.369 105.573 M230.784 119.939 C 231.043 119.989,231.418 119.987,231.617 119.935 C 231.816 119.883,231.604 119.842,231.146 119.844 C 230.688 119.847,230.525 119.889,230.784 119.939 M218.403 137.917 C 218.403 138.776,218.440 139.128,218.485 138.698 C 218.530 138.268,218.530 137.565,218.485 137.135 C 218.440 136.706,218.403 137.057,218.403 137.917 M105.827 181.823 L 104.479 183.229 105.885 181.881 C 106.659 181.140,107.292 180.507,107.292 180.475 C 107.292 180.321,107.080 180.517,105.827 181.823 M120.882 188.333 C 120.882 188.734,120.925 188.898,120.977 188.698 C 121.029 188.497,121.029 188.169,120.977 187.969 C 120.925 187.768,120.882 187.932,120.882 188.333 M95.687 206.250 C 95.687 206.880,95.726 207.138,95.774 206.823 C 95.822 206.508,95.822 205.992,95.774 205.677 C 95.726 205.362,95.687 205.620,95.687 206.250 M252.552 236.602 C 252.753 236.654,253.081 236.654,253.281 236.602 C 253.482 236.550,253.318 236.507,252.917 236.507 C 252.516 236.507,252.352 236.550,252.552 236.602 M256.200 236.606 C 256.459 236.656,256.834 236.654,257.034 236.601 C 257.233 236.549,257.021 236.509,256.563 236.511 C 256.104 236.513,255.941 236.556,256.200 236.606 M231.250 246.563 C 230.396 247.422,229.745 248.125,229.802 248.125 C 229.859 248.125,230.605 247.422,231.458 246.563 C 232.312 245.703,232.964 245.000,232.906 245.000 C 232.849 245.000,232.104 245.703,231.250 246.563 M233.700 260.356 C 233.959 260.406,234.334 260.404,234.534 260.351 C 234.733 260.299,234.521 260.259,234.063 260.261 C 233.604 260.263,233.441 260.306,233.700 260.356 " stroke="none" fill="#b8cae2" fill-rule="evenodd"></path></g></svg>